<?xml version="1.0" standalone="no"?>
<!DOCTYPE svg PUBLIC "-//W3C//DTD SVG 20010904//EN"
 "http://www.w3.org/TR/2001/REC-SVG-20010904/DTD/svg10.dtd">
<svg version="1.0" xmlns="http://www.w3.org/2000/svg"
 width="240.000000pt" height="240.000000pt" viewBox="0 0 240.000000 240.000000"
 preserveAspectRatio="xMidYMid meet">
<metadata>
Created by potrace 1.14, written by Peter Selinger 2001-2017
</metadata>
<g transform="translate(0.000000,240.000000) scale(0.100000,-0.100000)"
fill="#000000" stroke="none">
<path d="M423 2098 c-11 -13 -26 -33 -32 -45 -9 -17 -21 -23 -44 -23 -49 0
-77 -24 -77 -66 0 -77 44 -104 169 -104 l79 0 7 48 c13 88 14 117 4 154 -15
59 -68 77 -106 36z"/>
<path d="M352 1758 c-7 -7 -12 -17 -12 -22 0 -6 -12 -20 -26 -31 -20 -16 -25
-26 -20 -43 12 -35 39 -44 92 -30 l46 13 -6 43 c-10 74 -41 103 -74 70z"/>
<path d="M1017 1734 c-31 -7 -80 -23 -108 -35 -38 -17 -53 -19 -62 -10 -20 20
-63 12 -105 -19 -32 -23 -42 -37 -42 -58 0 -18 -10 -38 -26 -53 -63 -59 -119
-171 -135 -273 -6 -33 -17 -82 -26 -108 -19 -60 -14 -169 11 -221 13 -27 15
-41 8 -50 -6 -7 -9 -26 -7 -42 2 -17 6 -99 10 -183 l8 -154 40 -29 c89 -65
287 -100 557 -98 246 1 381 24 545 95 45 19 92 44 102 54 13 11 29 16 46 13
36 -7 127 23 245 80 67 33 75 57 70 211 -8 212 -55 370 -170 569 -86 149 -172
227 -241 221 -16 -2 -48 -10 -72 -19 -40 -16 -45 -16 -69 0 -16 11 -26 26 -26
41 0 13 -8 32 -18 42 -23 23 -92 35 -127 22 -18 -7 -44 -5 -88 5 -77 18 -243
18 -320 -1z m332 -27 c45 -12 59 -13 85 -2 45 19 100 0 104 -37 4 -34 -33 -64
-54 -43 -8 7 -14 18 -14 24 0 6 -4 11 -10 11 -16 0 -12 -32 7 -52 21 -23 45
-23 68 2 18 19 18 19 58 -12 48 -38 110 -131 132 -198 9 -26 23 -51 31 -54 24
-9 64 -111 64 -164 0 -122 -62 -216 -190 -286 -73 -40 -200 -75 -179 -50 26
31 -4 25 -71 -16 -65 -39 -72 -41 -100 -30 -46 19 -54 34 -35 70 9 17 27 36
40 42 25 11 35 38 14 38 -21 0 -89 -78 -95 -109 -9 -43 -35 -40 -63 9 -23 42
-65 80 -87 80 -25 0 -14 -25 15 -37 24 -9 71 -70 59 -76 -2 -1 -18 -12 -36
-25 -37 -26 -61 -22 -141 23 -33 19 -47 23 -57 14 -20 -17 -220 17 -259 44
-108 75 -138 170 -96 309 10 35 24 92 31 127 13 74 54 158 103 216 34 39 36
39 54 22 25 -21 51 -22 75 0 23 20 24 63 2 63 -9 0 -14 -6 -11 -12 6 -18 -11
-48 -27 -48 -20 0 -48 48 -41 71 12 38 96 64 123 37 9 -9 24 -6 64 14 46 22
73 31 163 52 37 9 219 -3 274 -17z m470 -115 c14 -10 49 -49 76 -85 139 -182
234 -454 235 -669 0 -143 -8 -155 -126 -201 l-59 -23 -2 133 c-2 199 -36 353
-112 524 -11 25 -30 58 -42 73 -12 15 -35 55 -51 89 -17 34 -45 83 -64 110
l-34 47 22 9 c13 4 30 11 38 14 26 11 92 -1 119 -21z m60 -512 c26 -101 41
-234 41 -356 0 -84 -3 -104 -17 -116 -28 -25 -75 -31 -98 -13 -19 15 -19 15 8
9 60 -14 98 46 91 143 -1 26 -5 86 -8 133 -3 47 -17 127 -31 178 -28 103 -30
121 -15 106 5 -5 18 -43 29 -84z m-14 -156 c19 -142 19 -253 1 -276 -13 -18
-61 -25 -70 -10 -2 4 -5 84 -7 177 -2 161 -1 173 22 218 21 42 24 45 31 27 4
-12 15 -73 23 -136z m-105 -1 c0 -24 -8 -31 -53 -50 -66 -29 -164 -60 -211
-67 -20 -3 -55 -10 -78 -16 -55 -12 -64 -12 -53 -1 6 6 26 13 45 16 139 24
280 76 318 117 15 15 28 28 29 28 2 0 3 -12 3 -27z m-1176 -38 c10 -7 15 -18
12 -24 -12 -19 3 -22 214 -53 161 -23 215 -44 85 -33 -79 7 -248 39 -291 56
-34 12 -41 -9 -7 -22 36 -15 192 -48 263 -57 91 -11 440 -6 520 8 155 25 284
62 346 100 l32 18 4 -61 c2 -34 0 -70 -4 -79 -5 -10 -4 -19 2 -23 6 -4 9 -40
8 -83 l-3 -77 -85 -36 c-180 -77 -354 -104 -615 -96 -179 6 -254 17 -386 57
-109 33 -107 27 -122 233 -7 98 -10 180 -8 183 7 7 15 4 35 -11z m631 -105
c16 -7 12 -9 -18 -9 -23 -1 -36 3 -32 9 7 12 23 12 50 0z"/>
<path d="M1316 1542 c-3 -5 6 -12 20 -15 15 -3 23 0 21 7 -5 14 -33 20 -41 8z"/>
<path d="M1316 1374 c-9 -8 -16 -22 -16 -29 0 -7 7 -21 16 -29 8 -9 22 -16 29
-16 7 0 21 7 29 16 9 8 16 22 16 29 0 7 -7 21 -16 29 -8 9 -22 16 -29 16 -7 0
-21 -7 -29 -16z"/>
<path d="M1542 1371 c-18 -5 -34 -10 -36 -12 -1 -2 -12 -17 -24 -33 -24 -31
-28 -46 -12 -46 6 0 10 6 10 13 0 7 12 25 28 40 29 28 86 38 132 23 19 -6 22
-5 14 3 -15 16 -72 22 -112 12z"/>
<path d="M918 1349 c-34 -19 -16 -79 22 -79 26 0 50 33 43 58 -3 12 -9 22 -13
22 -5 0 -14 2 -22 5 -7 2 -21 0 -30 -6z"/>
<path d="M1670 1347 c0 -4 8 -19 17 -34 20 -31 19 -97 -4 -131 -8 -13 -13 -26
-10 -28 3 -3 15 11 27 31 28 45 24 111 -9 146 -11 12 -21 20 -21 16z"/>
<path d="M1100 1326 c0 -10 9 -16 21 -16 24 0 21 23 -4 28 -10 2 -17 -3 -17
-12z"/>
<path d="M1160 1326 c0 -7 8 -16 19 -19 14 -3 17 0 14 14 -6 22 -33 26 -33 5z"/>
<path d="M665 1298 c-59 -32 -86 -115 -50 -152 8 -8 15 -19 15 -24 0 -13 69
-56 76 -49 3 3 -8 12 -24 21 -36 18 -72 73 -72 109 0 30 45 87 68 87 10 0 24
5 32 10 12 8 12 10 -5 10 -11 -1 -29 -6 -40 -12z"/>
<path d="M767 1291 c23 -11 48 -29 55 -40 16 -26 32 -28 19 -2 -12 22 -75 61
-99 61 -9 0 2 -9 25 -19z"/>
<path d="M1460 1253 c0 -5 5 -15 10 -23 8 -12 10 -11 10 8 0 12 -4 22 -10 22
-5 0 -10 -3 -10 -7z"/>
<path d="M1126 1241 c-18 -29 37 -62 62 -37 20 20 4 46 -28 46 -16 0 -31 -4
-34 -9z"/>
<path d="M1650 1212 c0 -23 -30 -52 -54 -52 -9 0 -15 -4 -12 -9 17 -26 76 16
76 54 0 14 -2 25 -5 25 -3 0 -5 -8 -5 -18z"/>
<path d="M770 1188 c11 -12 20 -25 20 -29 0 -24 -27 -60 -48 -66 -17 -4 -20
-8 -11 -14 21 -12 69 39 69 72 0 27 -22 59 -41 59 -5 0 -1 -10 11 -22z"/>
<path d="M847 1192 c4 -16 -10 -56 -35 -104 -2 -5 0 -8 5 -8 25 1 59 130 34
130 -5 0 -7 -8 -4 -18z"/>
<path d="M1480 1204 c0 -13 39 -49 63 -57 9 -4 17 -2 17 3 0 5 -9 12 -20 15
-12 4 -30 16 -40 28 -11 11 -20 16 -20 11z"/>
</g>
</svg>
